<?xml version="1.0" encoding="UTF-8" standalone="no" ?>
<!DOCTYPE svg PUBLIC "-//W3C//DTD SVG 1.1//EN" "http://www.w3.org/Graphics/SVG/1.1/DTD/svg11.dtd">
<svg xmlns="http://www.w3.org/2000/svg" xmlns:xlink="http://www.w3.org/1999/xlink" version="1.1" width="500" height="500" viewBox="0 0 500 500" xml:space="preserve">
<desc>Created with Fabric.js 4.6.0</desc>
<defs>
</defs>
<g transform="matrix(1.41 0 0 2.98 65.76 376.73)" id="7zG6iCAp5F9zoX274M0ip"  >
<linearGradient id="SVGID_538" gradientUnits="userSpaceOnUse" gradientTransform="matrix(1 0 0 1 -38.05 -38.05)"  x1="0" y1="38.05175038051751" x2="76.10350076103505" y2="38.05175038051751">
<stop offset="0%" style="stop-color:#E975A8;stop-opacity: 1"/>
<stop offset="100%" style="stop-color:#726CF8;stop-opacity: 1"/>
</linearGradient>
<path style="stroke: rgb(29,155,31); stroke-width: 0; stroke-dasharray: none; stroke-linecap: butt; stroke-dashoffset: 0; stroke-linejoin: miter; stroke-miterlimit: 4; fill: url(#SVGID_538); fill-rule: nonzero; opacity: 1;" vector-effect="non-scaling-stroke"  transform=" translate(0, 0)" d="M -38.05175 -30.94735 C -38.05175 -34.871 -31.330489999999998 -38.05175 -23.0394 -38.05175 L 23.039389999999997 -38.05175 L 23.039389999999997 -38.05175 C 31.330479999999998 -38.05175 38.051739999999995 -34.870999999999995 38.051739999999995 -30.94735 L 38.051739999999995 30.947360000000003 L 38.051739999999995 30.947360000000003 C 38.051739999999995 34.871010000000005 31.330479999999994 38.05176 23.039389999999997 38.05176 L -23.0394 38.05176 L -23.0394 38.05176 C -31.33049 38.05176 -38.05175 34.87101 -38.05175 30.947360000000003 z" stroke-linecap="round" />
</g>
<g transform="matrix(0.8 0 0 5.94 266.02 264.13)" id="BbW01VT7J9q6b5TvzNajA"  >
<linearGradient id="SVGID_518" gradientUnits="userSpaceOnUse" gradientTransform="matrix(1 0 0 1 -38.05 -38.05)"  x1="0" y1="38.05175038051751" x2="76.10350076103505" y2="38.05175038051751">
<stop offset="0%" style="stop-color:#E975A8;stop-opacity: 1"/>
<stop offset="100%" style="stop-color:#726CF8;stop-opacity: 1"/>
</linearGradient>
<path style="stroke: rgb(29,155,31); stroke-width: 0; stroke-dasharray: none; stroke-linecap: butt; stroke-dashoffset: 0; stroke-linejoin: miter; stroke-miterlimit: 4; fill: url(#SVGID_518); fill-rule: nonzero; opacity: 1;" vector-effect="non-scaling-stroke"  transform=" translate(0, 0)" d="M -38.05175 -34.48815 C -38.05175 -36.456269999999996 -26.26471 -38.05175 -11.724649999999997 -38.05175 L 11.724660000000004 -38.05175 L 11.724660000000004 -38.05175 C 26.264710000000004 -38.05175 38.05176 -36.456269999999996 38.05176 -34.48815 L 38.05176 34.48816 L 38.05176 34.48816 C 38.05176 36.45628 26.264720000000004 38.05176 11.72466 38.05176 L -11.72465 38.05176 L -11.72465 38.05176 C -26.2647 38.05176 -38.05175 36.45628 -38.05175 34.48816 z" stroke-linecap="round" />
</g>
<g transform="matrix(0.8 0 0 5.94 381.02 263.41)" id="-4LFNkbaoeUD6HJCOBB4O"  >
<linearGradient id="SVGID_486" gradientUnits="userSpaceOnUse" gradientTransform="matrix(1 0 0 1 -38.05 -38.05)"  x1="0" y1="38.05175038051751" x2="76.10350076103505" y2="38.05175038051751">
<stop offset="0%" style="stop-color:#E975A8;stop-opacity: 1"/>
<stop offset="100%" style="stop-color:#726CF8;stop-opacity: 1"/>
</linearGradient>
<path style="stroke: rgb(29,155,31); stroke-width: 0; stroke-dasharray: none; stroke-linecap: butt; stroke-dashoffset: 0; stroke-linejoin: miter; stroke-miterlimit: 4; fill: url(#SVGID_486); fill-rule: nonzero; opacity: 1;" vector-effect="non-scaling-stroke"  transform=" translate(0, 0)" d="M -38.05175 -34.48796 C -38.05175 -36.45619 -26.20272 -38.05175 -11.586189999999998 -38.05175 L 11.586190000000002 -38.05175 L 11.586190000000002 -38.05175 C 26.202710000000003 -38.05175 38.05175 -36.456179999999996 38.05175 -34.48796 L 38.05175 34.48795 L 38.05175 34.48795 C 38.05175 36.456179999999996 26.20272 38.051739999999995 11.586189999999998 38.051739999999995 L -11.586190000000002 38.051739999999995 L -11.586190000000002 38.051739999999995 C -26.202710000000003 38.051739999999995 -38.05175 36.45616999999999 -38.05175 34.48795 z" stroke-linecap="round" />
</g>
<g transform="matrix(4.58 0 0 1.01 313.78 451.49)" id="ghjVdmLrdz6VOQHRDVr6t"  >
<linearGradient id="SVGID_458" gradientUnits="userSpaceOnUse" gradientTransform="matrix(1 0 0 1 -38.05 -38.05)"  x1="0" y1="38.05175038051751" x2="76.10350076103505" y2="38.05175038051751">
<stop offset="0%" style="stop-color:#E975A8;stop-opacity: 1"/>
<stop offset="100%" style="stop-color:#726CF8;stop-opacity: 1"/>
</linearGradient>
<path style="stroke: rgb(29,155,31); stroke-width: 0; stroke-dasharray: none; stroke-linecap: butt; stroke-dashoffset: 0; stroke-linejoin: miter; stroke-miterlimit: 4; fill: url(#SVGID_458); fill-rule: nonzero; opacity: 1;" vector-effect="non-scaling-stroke"  transform=" translate(0, 0)" d="M -38.05175 -17.17565 C -38.05175 -28.7052 -35.98117 -38.05175 -33.426989999999996 -38.05175 L 33.42698000000001 -38.05175 L 33.42698000000001 -38.05175 C 35.981170000000006 -38.05175 38.05174000000001 -28.705199999999998 38.05174000000001 -17.175649999999997 L 38.05174000000001 17.17564 L 38.05174000000001 17.17564 C 38.05174000000001 28.70519 35.98116000000001 38.05174 33.42698000000001 38.05174 L -33.426989999999996 38.05174 L -33.426989999999996 38.05174 C -35.981179999999995 38.05174 -38.05175 28.70519 -38.05175 17.17564 z" stroke-linecap="round" />
</g>
<g transform="matrix(4.57 0 0 1.01 313.82 48.34)" id="GJ1t4C9E7sGFqRWsPPCnP"  >
<linearGradient id="SVGID_452" gradientUnits="userSpaceOnUse" gradientTransform="matrix(1 0 0 1 -38.05 -38.05)"  x1="0" y1="38.05175038051751" x2="76.10350076103505" y2="38.05175038051751">
<stop offset="0%" style="stop-color:#E975A8;stop-opacity: 1"/>
<stop offset="100%" style="stop-color:#726CF8;stop-opacity: 1"/>
</linearGradient>
<path style="stroke: rgb(29,155,31); stroke-width: 0; stroke-dasharray: none; stroke-linecap: butt; stroke-dashoffset: 0; stroke-linejoin: miter; stroke-miterlimit: 4; fill: url(#SVGID_452); fill-rule: nonzero; opacity: 1;" vector-effect="non-scaling-stroke"  transform=" translate(0, 0)" d="M -38.05175 -17.08553 C -38.05175 -28.664849999999998 -35.98072 -38.05175 -33.425959999999996 -38.05175 L 33.42597 -38.05175 L 33.42597 -38.05175 C 35.98072 -38.05175 38.05176 -28.664849999999998 38.05176 -17.08553 L 38.05176 17.08553 L 38.05176 17.08553 C 38.05176 28.664849999999998 35.98073 38.05175 33.42597 38.05175 L -33.425959999999996 38.05175 L -33.425959999999996 38.05175 C -35.980709999999995 38.05175 -38.05175 28.664849999999998 -38.05175 17.08553 z" stroke-linecap="round" />
</g>
</svg>